<?xml version="1.0" encoding="utf-8" ?>
<svg xmlns="http://www.w3.org/2000/svg" xmlns:xlink="http://www.w3.org/1999/xlink" width="512" height="512">
	<path fill="#4A5358" d="M71.502 423.67L71.875 424.511C74.749 424.697 82.4939 421.143 83.2374 425.473C77.8936 430.151 74.5298 428.515 72.9928 430.023L71.5174 430.048L71.48 424.738L71.502 423.67Z"/>
	<path fill="#272627" d="M84.2262 423.185L84.254 398.165C84.2297 393.506 82.5108 379.264 89.625 378.32L90.5626 379.125C94.3925 383.149 92.9907 397.881 93.0258 403.028L93.4261 419.887C93.5056 420.882 93.5842 421.976 93.4565 422.957C92.4346 430.478 92.2168 438.265 91.7923 445.842C91.6395 448.571 92.9029 452.482 90.4544 454.437L88.6698 455.717C87.6648 452.713 88.0483 450.183 87.9532 447.109L87.5953 440.238C87.5494 434.152 87.1246 433.85 85.801 428.5L84.7935 424.632C84.6568 424.128 84.4392 423.66 84.2262 423.185Z"/>
	<path fill="#5D676D" d="M93.5213 419.887L94.24 421.758L101.101 423.071C101.632 422.955 101.815 422.768 102.231 422.436C102.615 423.388 102.875 424.237 103.033 425.25L103.096 425.636C103.497 428.304 102.888 431.077 102.714 433.747L102.19 444.111C101.97 449.176 102.247 454.308 101.845 459.355L80.25 458.235C77.6301 458.042 74.8123 458.074 72.2434 457.533L71.7191 457.56C71.9287 454.995 71.51 452.185 71.5041 449.595L71.5156 430.048L72.9928 430.023C74.5298 428.515 77.8936 430.151 83.2374 425.473L84.2262 423.185C84.4392 423.66 84.6568 424.128 84.7935 424.632L85.801 428.5C87.1246 433.85 87.5494 434.152 87.5953 440.238L87.9532 447.109C88.0483 450.183 87.6648 452.713 88.6698 455.717L90.4544 454.437C92.9029 452.482 91.6395 448.571 91.7923 445.842C92.2168 438.265 92.4346 430.478 93.4565 422.957C93.5842 421.976 93.5056 420.882 93.5213 419.887Z"/>
	<path fill="#4A5358" d="M82.1028 450.625L83.2242 450.75C82.7912 451.446 82.1065 451.884 81.4651 452.375C80.8452 452.517 80.8613 452.511 80.2967 452.214L80.2576 451.75C80.8259 451.173 81.3608 450.935 82.1028 450.625Z"/>
	<path fill="#A19C9B" d="M93.5213 419.887L94.24 421.758C95.0416 422.387 95.0249 422.371 95.2271 423.371L95.0037 423.978L93.5249 424.875L93.4565 422.957C93.5842 421.976 93.5056 420.882 93.5213 419.887Z"/>
	<defs>
		<linearGradient id="gradient_0" gradientUnits="userSpaceOnUse" x1="99.150688" y1="424.405" x2="95.87204" y2="421.99405">
			<stop offset="0" stop-color="#636867"/>
			<stop offset="1" stop-color="#7B7C7F"/>
		</linearGradient>
	</defs>
	<path fill="url(#gradient_0)" d="M94.24 421.758L101.101 423.071C99.4978 424.816 97.0384 424.086 95.0037 423.978L95.2271 423.371C95.0249 422.371 95.0416 422.387 94.24 421.758Z"/>
	<path fill="#43454D" d="M72.9601 441.738C75.5606 441.411 80.1803 439.757 82.4689 440.061C82.9369 441.04 82.773 442.325 81.75 442.783L79.6864 442.563C77.4825 442.213 75.2683 442.259 73.0443 442.287L72.9683 448.21C72.9713 449.399 73.101 450.708 72.8561 451.866C72.3381 450.573 72.7388 443.085 72.9601 441.738Z"/>
	<path fill="#2E3031" d="M71.5156 430.048L72.9928 430.023L72.9617 441.738C72.7388 443.085 72.3381 450.573 72.9617 451.866C72.626 453.708 72.2493 455.699 72.2434 457.533L71.7191 457.56C71.9287 454.995 71.51 452.185 71.5041 449.595L71.5156 430.048Z"/>
	<path fill="#272627" d="M102.231 422.436C102.129 420.104 101.757 415.981 102.91 413.941L103.066 413.66C104.738 410.721 107.437 411.082 110.25 410.575L110.499 410.678C114.39 412.265 112.846 411.738 115.75 411.243C121.244 410.306 124.223 404.078 127.842 408.659C130.172 406.627 130.845 404.83 134.079 404.307L127.348 384.308L117.246 346.625C114.124 333.377 111.226 320.164 109.697 306.624L107.642 284.375L107.608 247.523L108.324 224.238C108.385 222.567 109.359 218.868 108.83 217.375C108.318 218.528 108.24 219.969 107.928 221.207L97.6293 264.867C95.4249 276.149 94.1863 288.135 93.5015 299.599C92.4927 316.487 97.4466 338.55 78.8388 347.774C69.555 352.376 62.1186 351.498 52.9534 348.028C50.6348 347.151 47.8516 347.553 45.4017 347.237C37.632 346.235 31.1929 340.473 27.9568 333.533C22.0917 320.955 29.4723 301.192 41.7084 295.78L43.8077 294.889C43.2081 283.316 43.2058 278.649 44.9026 267.222C50.6704 228.38 75.19 190.254 108.101 168.684L118.112 162.275C122.954 159.164 124.06 158.075 127.386 153.402L133.036 145.879C139.727 137.367 146.853 130.107 154.971 122.94C139.23 102.518 131.75 70.2058 143.174 46.1934C147.255 37.6149 154.275 36.7058 159.468 44.4688C163.338 50.2543 165.914 56.7905 170.093 62.4139C175.858 70.1706 183.505 76.8603 190.306 83.7172L203.215 97.6324C211.88 94.7776 220.977 93.4317 230.016 92.4271L237.306 91.5222C258.012 89.8629 278.956 91.9868 298.602 98.8492L302.888 100.375C306.284 101.651 311.191 96.2675 313.493 94.1585C326.155 82.5582 332.575 69.2789 334.76 52.2788C335.055 49.9793 335.288 34.3905 341.01 37.8344C344.422 39.8878 346.764 44.2856 348.495 47.75L348.715 48.1852C358.302 67.3592 358.456 104.777 341.973 120.934C359.245 128.873 374.043 148.356 382.023 164.838C382.444 165.708 383.912 170.251 385.104 170.021C392.284 168.637 402.75 176.021 408.251 179.764C438.366 200.252 448.583 220.937 460.462 253.111C465.19 265.916 469.561 278.964 472.125 292.397C472.508 294.405 472.391 296.494 472.799 298.455L473.977 298.8C474.99 299.054 475.895 299.835 476.682 300.495C483.971 306.615 488.481 317.896 486.285 327.25L486.213 327.598C483.452 340.653 467.279 345.487 455.718 345.869C432.386 346.639 421.235 337.705 420.194 313.75C419.899 306.963 419.098 302.495 418.458 296.052L415.061 263.171C412.663 249.443 405.541 221.346 398.76 208.525C398.936 210.694 399.63 212.881 400.089 215.01L404.752 243.125C409.94 279.196 404.005 323.65 395.746 359.5C393.093 371.019 389.054 382.407 387.092 394.054L386.107 400.075C384.689 405.894 385.795 421.876 387.101 427.249C387.605 422.586 387.623 407.228 389.125 405.67C394.237 404.977 399.838 405.547 405.017 405.463L410.529 405.303C411.655 405.309 412.047 405.251 412.996 405.809L414.733 425.672C416.643 425.275 418.671 425.281 420.526 424.772C421.772 404.983 415.476 405.774 436.525 403.825C436.533 399.852 436.266 382.63 438.926 379.916L439.125 379.764C440.081 380.228 440.29 381.161 440.615 382.124L441.807 387.173C447.825 387.588 453.895 387.413 459.924 387.46C463.946 387.49 471.895 386.151 472.867 391.5L472.936 391.843C473.955 397.283 472.654 403.042 473.779 408.598C474.822 409.099 476.716 409.014 477.905 409.121L482.82 409.791C492.978 411.066 491.424 414.063 491.427 422.429L491.387 447.517C491.375 449.484 491.498 451.558 491.182 453.501L490.638 456.044C494.273 455.803 498.237 455.091 501.582 456.915L501.898 457.084C505.964 459.342 506.633 464.422 502.75 466.982L502.456 467.193C500.358 468.392 493.316 467.82 490.549 467.962L453.616 470.276L393.951 471.829C391.887 471.889 389.897 472.379 387.818 472.43L360.75 472.525C358.236 472.598 355.739 473.155 353.179 473.191L241.368 473.742L172.628 473.205C170.18 473.152 167.698 472.605 165.197 472.542L147.742 472.423L94.125 470.281L24.7676 466.462C20.4037 466.136 15.673 465.968 11.5386 464.406C2.89925 461.142 7.37937 454.336 14.6172 453.686C15.6964 453.589 17.1641 454.038 17.7501 453L17.696 452.708C16.8434 447.657 21.4656 442.905 26.2966 442.351L28.2548 442.247L27.7309 410.982C27.7277 406.951 27.3692 402.622 27.6711 398.625C28.0038 394.22 34.0529 397.868 36.0516 398.597C39.7536 399.947 55.7767 403.471 54.9287 409.026L54.7527 409.713C54.2426 411.587 57.1995 409.142 57.7647 408.915C64.3351 406.271 71.2423 410.249 71.4774 417.316L71.5116 423.67L71.4226 424.738L71.5145 430.048L71.5041 449.595C71.51 452.185 71.9287 454.995 71.5876 457.56L72.2434 457.533C74.8123 458.074 77.6301 458.042 80.25 458.235L101.845 459.355C102.247 454.308 101.97 449.176 102.19 444.111L102.714 433.747C102.888 431.077 103.497 428.304 103.096 425.636L103.033 425.25C102.875 424.237 102.615 423.388 102.231 422.436ZM314.34 450.764C314.01 451.165 313.744 451.581 313.471 452.022L343.735 452.022C347.576 452.005 351.625 452.173 355.438 451.555L358.915 450.763L378.28 450.74C383.56 450.731 388.769 450.832 394.019 450.161C391.007 443.644 380.32 430.95 373.89 430.299C372.559 430.165 371.425 429.244 370.375 428.47C369.809 426.373 369.815 429.26 368.101 428.037L368.083 426.625C367.821 426.211 367.636 425.834 367.466 425.375L367.939 424.854L373.596 426.254C374.553 426.537 376.603 427.511 377.5 427.489C378.86 427.457 377.188 425.285 376.83 424.946L375.579 423.875C368.496 418.252 373.697 402.339 375.41 394.967L385.284 355.722C389.622 335.938 393.214 316.249 394.969 296.051L395.784 287.272L395.79 257.533L394.595 245.75C393.638 236.282 392.36 226.851 390.375 217.539L386.824 203.774C379.422 175.744 367.784 150.106 344.875 131.356C333.666 122.182 299.694 105.903 285.3 101.581C264.142 95.2276 233.592 96.3879 211.639 101.738C171.592 111.498 131.611 142.128 121.589 183.734C118.642 195.971 118.349 208.974 117.756 221.495L117.31 270.492C117.848 285.003 119.453 299.459 121.95 313.762L137.384 382.125L142.668 400.523C146.6 413.031 143.98 408.949 154.393 405.65C159.861 403.918 170.828 403.91 176.506 405.417L177.752 405.734C172.659 399.413 171.747 391.351 171.684 383.539C171.63 376.903 172.458 362.157 178.904 358.171C182.979 359.252 186.001 361.853 189.657 363.803C226.334 383.363 280.474 380.879 314.391 356.939C318.186 354.261 323.263 349.747 328.265 351.203C343.243 355.561 347.738 395.695 346.365 410.863C346.172 412.996 345.572 415.111 345.25 417.238L344.919 417.371C343.24 418.085 341.616 419.651 339.881 420.526C322.362 429.373 322.202 435.258 314.34 450.764ZM297.495 444.671C297.745 445.867 297.968 447.028 298.423 448.169C301.301 445.46 298.706 442.73 305.962 443.467C309.313 443.808 308.654 445.872 310 445.986C315.965 441.749 313.019 420.332 338.287 413.07C337.803 407.839 336.442 402.643 335.462 397.482C333.116 385.124 330.909 373.003 326.849 361.053C321.728 362.951 316.88 365.575 311.783 367.579L293.723 373.892C277.781 379.036 262.485 381.676 245.655 381.728L235.751 381.678C233.703 381.633 231.562 381.643 229.555 381.224L187.757 371.742C182.614 376.764 183.206 390.776 184.991 397.203C187.411 405.92 193.7 402.643 198.434 410.415L198.625 410.737C203.286 418.409 199.919 419.648 200.015 424.375C206.716 422.829 213.887 441.974 215.908 446.745C216.274 444.633 217.06 442.602 217.221 440.462C217.529 436.373 216.458 426.821 217.859 423.428L217.992 423.125C219.479 419.433 223.817 419.625 227.249 419.321C227.31 413.192 226.58 406.883 226.102 400.768L225.298 390.425C225.06 383.059 226.799 385.109 232.757 385.18L249.802 385.187C252.568 385.166 255.226 384.863 257.975 384.7L277.77 383.89C281.036 383.808 286.671 382.429 288.902 385.506C291.575 389.192 288.015 404.511 287.549 409.125C287.13 413.28 287.34 417.463 286.838 421.613L291.725 421.722C293.89 421.782 294.961 422.038 295.62 424.306L295.746 424.75C297.246 429.659 296.356 434.976 296.959 440.03L297.495 444.671ZM35.2691 431.02L35.7482 431.713L37.4593 431.683L38.75 431.676C39.2816 430.843 39.0397 428.695 39.1768 427.622L39.2183 427.378L39.8072 417.53L47.5316 417.539C47.8211 406.292 47.7827 407.311 35.0748 405.579C34.2877 409.346 34.9367 427.178 35.2691 431.02ZM37.4593 431.683L35.7482 431.713L35.2691 431.02L35.0149 436.401C35.8855 437.264 36.6846 437.928 37.7997 438.449L38.5481 438.459C39.696 435.059 39.3329 430.963 39.2101 427.378L39.1768 427.622C39.0397 428.695 39.2816 430.843 38.75 431.676L37.4593 431.683Z"/>
	<path fill="#2E3031" d="M402.308 450.625C402.592 450.773 402.497 450.683 402.689 450.948L404.625 454.338L404.417 454.288C403.073 453.788 401.872 452.051 402.308 450.625Z"/>
	<path fill="#6E3339" d="M49.3204 333.209L49.4341 333.211C49.4861 333.568 51.5914 338.092 51.8479 338.475C51.4607 339.071 51.2472 339.263 51.2369 339.986C50.212 338.198 50.0945 336.165 49.0512 334.495C49.196 334.072 49.2466 333.65 49.3204 333.209Z"/>
	<path fill="#BC3F43" d="M56.5015 341.844L56.6325 341.586C57.354 340.14 58.1322 340.03 59.7025 339.999C59.3433 341.067 59.0192 342.028 58.375 342.969L56.5015 341.844Z"/>
	<path fill="#43454D" d="M394.218 434.415C395.983 436.801 393.52 436.484 397.721 437.498C397.063 438.261 396.743 438.747 396.502 439.732L394.055 436.704C393.879 435.832 393.997 435.27 394.218 434.415Z"/>
	<path fill="#953942" d="M57.6052 336.805C58.0024 338.564 58.4159 339.046 60.0702 339.611L59.7025 339.999C58.1322 340.03 57.354 340.14 56.6325 341.586L56.5015 341.844C56.0567 341.344 55.7919 340.96 55.5109 340.339C56.6831 338.952 57.3508 338.752 57.6052 336.805Z"/>
	<path fill="#9F696E" d="M197.796 444.104L198.061 444.182C200.13 444.764 200.757 444.07 202.202 445.993C201.134 447.243 199.323 447.321 197.844 446.987C197.975 446.112 197.801 445.008 197.796 444.104Z"/>
	<path fill="#2E3031" d="M35.0149 436.401C35.8855 437.264 36.6846 437.928 37.7997 438.449L38.5481 438.459C38.7813 439.304 38.7304 440.142 38.7217 441.01L34.4588 440.99L34.5839 439.303L35.0149 436.401Z"/>
	<path fill="#43454D" d="M35.0149 436.401C35.8855 437.264 36.6846 437.928 37.7997 438.449C36.9879 439.046 36.1989 439.719 35.25 440.078L34.5839 439.303L35.0149 436.401Z"/>
	<defs>
		<linearGradient id="gradient_1" gradientUnits="userSpaceOnUse" x1="443.1102" y1="400.27536" x2="439.93109" y2="398.99133">
			<stop offset="0" stop-color="#454946"/>
			<stop offset="1" stop-color="#67816A"/>
		</linearGradient>
	</defs>
	<path fill="url(#gradient_1)" d="M439.871 407.028L440.527 405C441.709 401.194 441.685 397.065 441.851 393.111C444.719 392.647 441.841 405.155 441.153 406.58L439.871 407.028Z"/>
	<path fill="#BC3F43" d="M65.2741 335.83C65.6724 336.903 65.6637 337.758 65.6346 338.883L66.2455 339.245C65.1664 339.625 64.9888 339.673 64.4782 340.75L63.3602 344.278C62.3181 344.3 61.6103 344.269 60.6387 343.875L63.5254 337.767C64.1871 337.258 64.3858 337.123 64.6866 337.95L65.2741 335.83Z"/>
	<path fill="#848B8D" d="M277.958 389.749C282.817 389.666 285.418 388.636 283.265 395.319L283.267 395.968C282.513 395.758 281.727 395.063 281.076 394.62L281.535 394.03C280.323 392.617 278.981 391.313 277.958 389.749Z"/>
	<path fill="#7B8E85" d="M281.535 394.03C281.834 393.586 282.009 393.283 282.5 393.045L283.143 393.125C283.471 393.801 283.156 394.562 283.265 395.319L283.267 395.968C282.513 395.758 281.727 395.063 281.076 394.62L281.535 394.03Z"/>
	<path fill="#BFC0C6" d="M231.2 401.493C230.92 397.954 229.967 393.777 230.325 390.306C231.05 390.122 231.842 390.537 232.526 390.775L233.049 391.463C231.278 397.936 233.59 397.833 233.927 400.99L233.138 401.13C232.457 401.427 231.926 401.466 231.2 401.493Z"/>
	<path fill="#4A5358" d="M446.539 408.042L448.875 394.325L450.418 394.375C450.773 396.028 449.696 398.54 449.39 400.241C448.749 403.799 448.955 407.544 448.268 411.015C448.112 409.791 448.79 406.418 446.539 408.042Z"/>
	<path fill="#848B8D" d="M37.4593 431.683L38.75 431.676C39.2816 430.843 39.0397 428.695 39.1768 427.622L39.2101 427.378C39.3329 430.963 39.696 435.059 38.5481 438.459L37.7997 438.449C36.6846 437.928 35.8855 437.264 35.0149 436.401L35.2691 431.02L35.7482 431.713L37.4593 431.683ZM35.7482 431.713C36.2075 433.268 36.4444 434.629 36.4492 436.25L36.875 436.447C37.414 436.121 37.72 436.059 37.8202 435.375L37.4593 431.683L35.7482 431.713Z"/>
	<path fill="#4A5358" d="M28.4632 454.274C27.1028 454.273 24.8634 454.513 23.7918 453.625L23.7993 450.76C24.1412 446.656 27.4885 443.953 29.2706 447.459C29.1785 449.813 28.9466 451.968 28.4632 454.274Z"/>
	<path fill="#43454D" d="M232.526 390.775L236.551 390.522C236.475 392.559 236.251 394.738 237.741 396.357L238.559 397.175C237.697 398.125 236.874 399.052 235.848 399.833C235.229 400.301 234.684 400.764 233.927 400.99C233.59 397.833 231.278 397.936 233.049 391.463L232.526 390.775Z"/>
	<path fill="#BC3F43" d="M53.6332 328.445C54.1982 329.109 54.8241 329.721 55.0951 330.566C57.0996 335.438 54.899 336.98 53.6354 340.317C52.7841 340.995 51.9349 340.765 51.2369 339.986C51.2472 339.263 51.4607 339.071 51.8479 338.475C51.5914 338.092 49.4861 333.568 49.4341 333.211C49.7816 332.802 50.0522 332.675 50.5179 332.426L50.7802 332.519L51.1227 332.371C51.6679 331.609 51.9397 330.66 52.2633 329.787L53.0236 329.362L53.6332 328.445Z"/>
	<path fill="#512C3D" d="M52.2633 329.787L53.0236 329.362C53.0195 331.263 53.1139 333.232 52.7866 335.108C51.8708 334.322 51.356 333.575 50.7802 332.519L51.1227 332.371C51.6679 331.609 51.9397 330.66 52.2633 329.787Z"/>
	<path fill="#482D36" d="M50.5179 332.426L50.7802 332.519C51.356 333.575 51.8708 334.322 52.7866 335.108C52.6484 336.345 52.3979 337.354 51.8479 338.475C51.5914 338.092 49.4861 333.568 49.4341 333.211C49.7816 332.802 50.0522 332.675 50.5179 332.426Z"/>
	<path fill="#4A5358" d="M56.0228 416.235C56.9457 416.062 61.1343 416.05 61.429 415.5L60.7045 414.625C62.2352 411.571 68.1238 414.167 65.5281 421.613C63.8146 421.772 55.4423 422.42 54.1058 421.398C54.2422 419.676 54.1389 419.551 52.359 419.374L54.25 419.315C54.6437 418.528 54.5317 417.585 54.5505 416.713C54.2461 415.113 55.0834 415.584 56.0228 416.235Z"/>
	<path fill="#5D676D" d="M54.5505 416.713C54.2461 415.113 55.0834 415.584 56.0228 416.235C55.869 417.205 55.657 418.252 55 419.02C54.5609 418.467 54.7475 417.431 54.5505 416.713Z"/>
	<path fill="#5D676D" d="M394.254 434.002C393.061 428.973 393.232 417.455 393.785 411.775L393.898 410.969C395.744 411.057 406.849 411.079 407.464 411.545L407.988 421.062C408.15 422.844 408.594 424.59 408.766 426.375L410.671 449.442C410.926 453.284 411.605 457.239 411.507 461.089L407.854 461.235C407.462 459.364 407.048 457.187 407.375 455.293L407.196 453.663L405.253 452.875C404.749 452.167 404.561 451.318 404.31 450.496C404.059 449.614 404.031 448.695 403.965 447.785L403.581 447.86C401.272 448.975 400.838 446.806 399.921 444.334C399.432 443.456 398.769 442.845 398.054 442.153C397.339 441.375 396.91 440.706 396.502 439.732C396.743 438.747 397.063 438.261 397.721 437.498C393.52 436.484 395.983 436.801 394.218 434.415L394.254 434.002Z"/>
	<path fill="#2E3031" d="M403.965 447.785C405.153 448.553 405.938 449.438 406.493 450.745L404.31 450.496C404.059 449.614 404.031 448.695 403.965 447.785Z"/>
	<path fill="#43454D" d="M398.054 442.153L399.125 441.214C401.017 441.51 400.981 443.139 399.921 444.334C399.432 443.456 398.769 442.845 398.054 442.153Z"/>
	<path fill="#4A5358" d="M406.493 450.745L407.196 453.663L405.253 452.875C404.749 452.167 404.561 451.318 404.31 450.496L406.493 450.745Z"/>
	<path fill="#2E3031" d="M394.254 434.002L394.486 433.833C396.161 432.312 397.21 424.839 400.741 427.75C401.336 430.12 403.599 436.504 399.667 437.213L397.721 437.498C393.52 436.484 395.983 436.801 394.218 434.415L394.254 434.002Z"/>
	<path fill="#DB4353" d="M318.924 109.944C315.444 108.271 311.825 105.936 308.211 104.698L318.464 97.6981C332.317 88.268 338.36 72.339 341.028 56.1729L341.615 49.4815C348.559 69.6977 349.353 74.0947 344.888 96.6835C343.767 102.358 342.845 108.574 340.303 113.828L337.42 118.709L327.297 113.796L323.801 112.183L320.543 110.448L318.924 109.944Z"/>
	<path fill="#612934" d="M328.494 108.236C329.596 108.031 330.866 108.857 331.818 109.342L329.817 111.223C329.283 110.299 328.921 109.219 328.494 108.236Z"/>
	<path fill="#BC3F43" d="M318.924 109.944C319.806 107.634 321.721 107.068 323.862 105.992C322.706 107.374 321.249 108.79 320.543 110.448L318.924 109.944Z"/>
	<path fill="#953942" d="M323.801 112.183L323.916 112.013C325.005 110.162 326.67 109.274 328.494 108.236C328.921 109.219 329.283 110.299 329.817 111.223L327.297 113.796L323.801 112.183Z"/>
	<path fill="#5D676D" d="M38.7217 441.01C39.1215 443.114 43.0859 443.284 44.2404 442.043C44.3268 441.95 44.2353 437.941 44.236 437.511L44.3864 430.02C44.2395 422.493 43.3538 424.908 53.2601 424.962L71.4226 424.745L71.5145 430.048L71.5041 449.595C71.51 452.185 71.9287 454.995 71.5876 457.56L30.5223 454.551L28.4632 454.274C28.9466 451.968 29.1785 449.813 29.2706 447.459C29.7345 447.248 29.5721 447.382 29.9134 446.966L30.1533 446.657C31.2171 446.41 32.3437 446.744 33.402 446.936C33.9767 445.001 34.0498 442.964 34.4588 440.99L38.7217 441.01Z"/>
	<path fill="#43454D" d="M29.2706 447.459C29.7345 447.248 29.5721 447.382 29.9134 446.966L30.1533 446.657C31.2171 446.41 32.3437 446.744 33.402 446.936L30.5223 454.501L28.4632 454.274C28.9466 451.968 29.1785 449.813 29.2706 447.459Z"/>
	<path fill="#5D676D" d="M439.871 407.028L441.153 406.58L440.91 406.883C439.739 415.745 441.508 424.826 440.013 433.787C439.475 437.006 439.648 440.519 439.632 443.779L439.574 460.35L415.41 461.206C416.903 450.565 415.251 440.274 415.47 429.716C418.206 430.5 423.14 429.403 425.894 428.584C425.7 424.626 426.694 423.542 426.415 419.302C425.627 407.306 425.602 408.579 436.568 408.274C437.334 409.111 437.778 409.947 438.257 410.97L438.402 411.015C438.641 409.343 438.801 408.409 439.871 407.028Z"/>
	<path fill="#43454D" d="M431.008 443.125C432.447 442.946 433.977 442.591 433.125 444.445C432.183 445.574 431.507 444.041 431.008 443.125Z"/>
	<path fill="#43454D" d="M431.568 435.875C432.558 435.726 433.696 435.85 434.703 435.861L433.089 437.827C432.655 438.085 432.211 438.276 431.75 438.479L431.268 438.125C431.166 437.086 430.968 436.76 431.568 435.875Z"/>
	<path fill="#4A5358" d="M420.933 435.625L421.275 435.557C422.214 435.418 422.738 435.558 423.488 436.125L422.875 437.759C421.152 438.301 419.755 437.506 420.933 435.625Z"/>
	<path fill="#6C7384" d="M355.438 451.742L394.637 450.822C396.102 452.757 399.202 460.677 399.17 463.456L304.789 463.816C307.004 458.576 307.997 454.458 313.471 452.022L343.735 452.022C347.576 452.005 351.625 452.173 355.438 451.742Z"/>
	<path fill="#5D676D" d="M115.985 448.986C116.843 447.782 115.617 447.019 114.778 445.948L114.713 445.209C115.591 445.68 116.891 445.422 117.875 445.417L161.5 445.519C165.759 445.61 169.969 446.391 174.242 446.454L189.59 446.532C192.178 446.543 195.044 446.339 197.594 446.754L197.844 446.987C199.323 447.321 201.134 447.243 202.202 445.993C206.136 450.627 207.169 457.891 207.542 463.737L110.4 461.945C113.081 458.914 114.157 450.112 115.985 448.986Z"/>
	<path fill="#4A5358" d="M115.985 448.986C116.843 447.782 115.617 447.019 114.778 445.948L114.713 445.209C115.591 445.68 116.891 445.422 117.875 445.417L161.5 445.519C165.759 445.61 169.969 446.391 174.242 446.454L189.59 446.532C192.178 446.543 195.044 446.339 197.594 446.754L197.816 447.206C198.211 447.557 198.418 447.994 198.663 448.452L198.622 448.875C192.474 451.286 185.665 450.774 179.204 450.771L137.883 450.74C133.676 450.735 129.398 450.886 125.201 450.636C122.023 450.446 119.08 449.429 115.985 448.986Z"/>
	<path fill="#DB4353" d="M171.068 112.476C167.65 114.42 164.62 116.121 161.453 118.493C147.815 102.621 141.143 77.5909 145.573 57.2301C146.604 52.4927 147.747 47.8835 151.457 44.5257C154.65 48.2051 155.824 53.1247 157.637 57.5621C163.185 71.1399 175.193 80.0939 185.824 89.5861L197.525 100.961L177.741 108.959L175.511 109.992L172.769 111.464L171.068 112.476Z"/>
	<path fill="#BC3F43" d="M175.511 109.992C174.895 108.023 174.608 105.5 174.641 103.443C175.827 105.019 176.073 107.311 177.472 108.706L177.741 108.959L175.511 109.992Z"/>
	<path fill="#953942" d="M171.068 112.476C170.36 110.933 166.333 103.792 167.191 102.419L167.512 102.375C169.227 105.118 169.151 108.101 172.482 111.208L172.769 111.464L171.068 112.476Z"/>
	<path fill="#5D676D" d="M448.268 411.015C448.196 412.235 447.803 418.582 448.248 419.076C449.924 417.361 449.665 414.103 449.906 411.867L451.308 396.587C451.389 395.939 451.377 394.406 451.89 394.078C457.283 394.058 463.149 393.608 468.466 394.373C468.832 398.651 468.907 413.329 471.175 416.627L471.598 416.675L472.968 416.375C474.614 415.979 476.175 415.999 477.86 415.994C480.006 415.714 482.422 416.054 484.548 416.402L484.759 456.261L444.262 458.591L446.539 408.042C448.79 406.418 448.112 409.791 448.268 411.015Z"/>
	<path fill="#DB4353" d="M114.713 445.209C118.627 441.937 121.784 437.629 125.176 433.837C135.26 422.564 145.314 413.311 160.413 409.304C166.472 407.696 172.461 408.221 178.625 406.035L186.746 410.704C190.604 412.984 193.688 415.763 196.677 419.073C199.313 421.995 200.348 423.259 198.882 426.824C196.77 431.961 195.604 438.904 197.796 444.104C197.801 445.008 197.975 446.112 197.844 446.987L197.594 447.038C195.044 446.339 192.178 446.543 189.59 446.532L174.242 446.454C169.969 446.391 165.759 445.61 161.5 445.519L117.875 445.417C116.891 445.422 115.591 445.68 114.713 445.209Z"/>
	<path fill="#5D676D" d="M236.551 390.522L269.471 389.751C272.315 389.634 275.12 389.417 277.958 389.749C278.981 391.313 280.323 392.617 281.535 394.03L281.076 394.62C281.727 395.063 282.513 395.758 283.267 395.968C282.424 398.326 282.95 400.866 282.28 403.116L281.504 410.322L281.453 412.505L282.079 421.375C282.174 423.834 282.325 425.992 281.706 428.375C280.301 433.786 288.348 429.23 289.638 429.875C290.555 433.074 290.449 436.643 290.481 439.958L290.578 451.309C291.121 451.422 291.245 451.295 291.747 451.144L292.072 451.077C293.202 450.824 294.957 449.558 295.625 448.627L296.001 448.501C296.482 448.247 296.782 447.696 297.001 447.251L297.318 446.373C297.238 445.785 297.371 445.242 297.495 444.671C297.745 445.867 297.968 447.028 298.423 448.169C298.928 453.42 298.562 459.029 297.832 464.248L231.625 463.691C226.838 463.46 221.965 463.837 217.205 463.266C218.004 455.636 221.257 454.501 222.859 448.727C223.212 447.903 223.561 447.119 224.021 446.349C224.367 444.115 223.869 441.283 224.185 438.912L224.473 436.625L224.456 436.014C222.524 423.034 222.403 425.577 231.793 427.117C232.472 427.088 232.842 427.046 233.465 426.731L231.737 407.661L231.2 401.493C231.926 401.466 232.457 401.427 233.138 401.13L233.927 400.99C234.684 400.764 235.229 400.301 235.848 399.833C236.874 399.052 237.697 398.125 238.559 397.175L237.741 396.357C236.251 394.738 236.475 392.559 236.551 390.522Z"/>
	<path fill="#43454D" d="M241.376 401.973L242.134 402.125C242.816 402.85 242.756 403.021 242.875 403.975L242.375 404.263C241.177 403.63 240.06 402.848 238.788 402.376C239.516 401.952 240.539 402.029 241.376 401.973Z"/>
	<path fill="#43454D" d="M279.097 414.018L278.036 412.375C278.524 411.165 280.078 411.045 281.154 410.493L281.48 410.322L281.453 412.505C280.67 412.586 280.295 412.483 279.763 413.147L279.48 413.636L279.097 414.018Z"/>
	<path fill="#4A5358" d="M233.737 407.986C234.052 407.565 234.048 406.897 234.125 406.379C235.388 406.886 236.325 407.531 237.358 408.414L236.875 409.525C235.151 409.824 234.016 409.955 233.737 407.986Z"/>
	<path fill="#43454D" d="M282.868 436.375L283.263 436.266C284.932 437.025 285.264 438.983 284.125 440.268C280.938 441.9 282.509 437.822 282.868 436.375Z"/>
	<path fill="#4A5358" d="M231.793 427.117C232.472 427.088 232.842 427.046 233.465 426.731L233.66 427.079C236.487 432.032 232.611 431.222 231.549 429.875C231.656 429.012 231.897 428.309 232.211 427.5L231.793 427.117Z"/>
	<path fill="#2E3031" d="M233.927 400.99C234.684 400.764 235.229 400.301 235.848 399.833C239.088 402.802 237.752 401.016 241.376 401.973C240.539 402.029 239.516 401.952 238.788 402.376C237.813 402.807 236.033 403.316 234.978 403.308L234.25 403.009C233.397 402.537 233.369 401.988 233.138 401.13L233.927 400.99Z"/>
	<path fill="#43454D" d="M224.021 446.349C226.281 450.636 226.506 446.989 229.191 448.5C229.072 450.457 224.996 451.981 223.811 449.974L223.492 449.395C223.308 449.073 223.154 448.938 222.859 448.727C223.212 447.903 223.561 447.119 224.021 446.349Z"/>
	<path fill="#4A5358" d="M279.097 414.018L279.48 413.636C281.874 418.451 277.324 419.439 275.55 418L275.503 417.375C276.561 416.331 277.656 415.057 278.85 414.182L279.097 414.018Z"/>
	<defs>
		<linearGradient id="gradient_2" gradientUnits="userSpaceOnUse" x1="234.23813" y1="405.65228" x2="230.6237" y2="403.4169">
			<stop offset="0" stop-color="#7A898D"/>
			<stop offset="1" stop-color="#9A9DAA"/>
		</linearGradient>
	</defs>
	<path fill="url(#gradient_2)" d="M231.2 401.493C231.926 401.466 232.457 401.427 233.138 401.13C233.369 401.988 233.397 402.537 234.25 403.009L234.978 403.308L235.5 403.75C235.4 404.748 234.665 405.211 233.821 405.625L233.737 407.986C233.065 407.953 232.397 407.787 231.737 407.661L231.2 401.493Z"/>
	<path fill="#4A5358" d="M236.517 412.375L237.11 412.287C238.986 413.824 239.468 416.098 239.922 418.375L239.311 418.875C235.403 420.447 235.245 414.645 236.517 412.375Z"/>
	<path fill="#43454D" d="M282.28 403.116L282.217 400.75C281.098 399.798 278.862 400.443 277.533 399.625C277.336 397.533 278.281 396.15 279.079 394.286L281.076 394.62C281.727 395.063 282.513 395.758 283.267 395.968C282.424 398.326 282.95 400.866 282.28 403.116Z"/>
	<path fill="#4A5358" d="M224.456 436.014L224.898 435.951C226.29 435.71 227.268 434.605 228.196 433.633C230.582 436.873 231.579 438.935 227.5 442.014L226.875 441.949C226.524 441.376 226.154 440.845 225.996 440.183L224.246 438.912L224.473 436.625L224.456 436.014Z"/>
	<path fill="#43454D" d="M224.473 436.625C225.397 437.624 225.955 438.364 226.183 439.73L225.996 440.183L224.246 438.912L224.473 436.625Z"/>
	<path fill="#DB4353" d="M426.288 284.739L425.951 284.471C425.061 283.266 425.598 278.578 425.329 276.832C422.039 255.428 416.74 234.606 407.125 215.082L398.859 199.563C394.773 191.036 391.296 182.148 386.733 173.867C394.323 178.001 401.183 182.905 407.933 188.285C429.241 205.271 438.027 219.246 448.126 244.557C451.903 254.022 455.395 263.662 458.278 273.44L464.508 295.473C465.094 298.007 465.744 298.809 468.125 300.181L468.882 300.575C475.353 303.94 480.967 317.21 479.336 324.5L479.236 324.967C477.985 330.641 473.506 335.028 468.253 337.201L466.415 337.596C465.017 338.047 463.471 338.784 462 338.776C461.289 338.794 460.694 338.91 460.012 339.086C457.621 339.448 449.216 340.292 447.455 339.25L447.597 338.625C447.74 337.997 447.894 337.522 447.729 336.875L447.125 336.632C446.472 337.549 447.179 338.509 446.625 339.287C428.282 336.383 426.157 321.426 426.304 305.036L429.391 304.879C429.139 303.144 426.872 301.375 426.266 299.61C425.45 297.231 425.74 294.08 425.725 291.578C425.373 289.739 425.255 286.295 426.288 284.739Z"/>
	<path fill="#612934" d="M460.012 339.086C460.026 337.391 460.043 335.857 461.875 335.263L462 338.776C461.289 338.794 460.694 338.91 460.012 339.086Z"/>
	<path fill="#6E3339" d="M426.288 284.739C427.328 285.539 431.53 288.189 428 288.459L426 288.471C425.506 289.229 425.725 290.656 425.719 291.578C425.373 289.739 425.255 286.295 426.288 284.739Z"/>
	<path fill="#612934" d="M466.415 337.596L465.862 335.096C466.399 333.687 467.452 331.373 468.75 330.579L469.202 330.875C469.398 333.171 468.307 334.803 468.252 336.851L468.253 337.201L466.415 337.596Z"/>
	<path fill="#DB4353" d="M49.9526 272.611C53.0844 238.134 78.2184 195.661 108.546 177.412C111.216 175.805 114.057 174.331 116.469 172.347C114.448 176.976 113.008 181.805 111.357 186.574L100.713 219.448C92.7171 245.618 82.928 272.552 82.7662 300.282L82.9189 319.644C83.0208 328.312 82.7533 336.714 74.1996 342.255L73.375 342.674C71.2765 343.711 68.8439 345.031 66.4115 344.624C65.5862 344.078 64.3208 344.268 63.3602 344.278L64.4782 340.75C64.9888 339.673 65.1664 339.625 66.2455 339.245L65.6346 338.883C65.6637 337.758 65.6724 336.903 65.2741 335.83L64.6866 337.95C64.3858 337.123 64.1871 337.258 63.5254 337.767C63.2624 337.099 62.8328 336.638 62.387 336.083L62.0722 335.72C59.3208 332.466 62.0345 337.378 60.0702 339.611C58.4159 339.046 58.0024 338.564 57.6052 336.805C58.592 335.228 58.9008 333.255 59.5 331.5L62.2731 323.452L62.289 322L61.0884 321.625C59.0877 324.642 57.1227 339.279 55.3592 330.318L55.0951 330.566C54.8241 329.721 54.1982 329.109 53.6332 328.445L53.0236 329.362L52.2633 329.787C51.9397 330.66 51.6679 331.609 51.1227 332.371L50.7802 332.519L50.5179 332.426C50.0522 332.675 49.7816 332.802 49.4341 333.211L49.3204 333.209C49.2466 333.65 49.196 334.072 49.0512 334.495L46.9617 339.541C46.4326 339.735 45.9386 339.894 45.4599 340.198C41.6157 341.85 34.3197 332.319 32.9578 328.717C29.436 319.401 33.9916 308.61 41.2853 302.509C46.6255 298.042 50.8535 300.556 50.375 293.573C50.1968 290.973 50.2855 288.402 50.3343 285.799L49.855 283.746L49.7248 282.739C49.4097 279.99 49.3507 277.527 49.7919 274.783C49.7343 274.061 49.868 273.328 49.9526 272.611Z"/>
	<path fill="#D46C73" d="M49.855 283.746C50.7607 283.624 50.9935 283.921 51.767 284.371L52.7755 286.714C51.9325 286.51 51.1331 286.134 50.3343 285.799L49.855 283.746Z"/>
	<path fill="#512C3D" d="M66.0534 330.248L68.1963 326.059C69.2365 327.45 67.8034 329.42 67.0284 330.619L66.0534 330.248Z"/>
	<path fill="#512C3D" d="M43.2325 333.956C43.7879 335.012 44.6579 336.7 44.7389 337.905C44.33 338.263 43.9446 338.595 43.6112 339.027L43.375 339.338C43.1987 336.788 42.1535 338.175 43.2325 333.956Z"/>
	<path fill="#953942" d="M49.9526 272.611L51 272.014C51.7849 272.635 53.8585 274.928 53.5304 275.714C52.004 275.179 51.4898 274.661 49.7919 274.783C49.7343 274.061 49.868 273.328 49.9526 272.611Z"/>
	<defs>
		<linearGradient id="gradient_3" gradientUnits="userSpaceOnUse" x1="55.109146" y1="325.52689" x2="54.325836" y2="328.70709">
			<stop offset="0" stop-color="#533137"/>
			<stop offset="1" stop-color="#463E3D"/>
		</linearGradient>
	</defs>
	<path fill="url(#gradient_3)" d="M54.6571 324.759L55.8543 326.76C55.7178 327.884 55.7054 329.252 55.3592 330.318L55.0951 330.566C54.8241 329.721 54.1982 329.109 53.6332 328.445L53.4626 327.718L54.6571 324.759Z"/>
	<path fill="#612934" d="M54.6571 324.759L55.1392 322.717C55.5767 321.023 56.0642 319.052 57.5 317.933L57.2262 320.164C56.41 322.132 56.0462 324.643 55.8543 326.76L54.6571 324.759Z"/>
	<path fill="#512C3D" d="M73.545 331.625C73.8506 331.707 73.6726 331.626 73.996 332L73.4341 334.875C75.3692 337.285 72.4675 338.822 72.2162 341.416L71.625 341.978C69.0978 340.796 72.956 336.755 73.038 334.75C72.0856 333.528 72.775 332.758 73.545 331.625Z"/>
	<path fill="#482D36" d="M43.2325 333.956C42.7263 333.376 42.1773 332.549 41.4332 332.289L41.125 332.229C40.9326 329.819 41.9655 331.598 42.875 332.484L44.4462 331.03C45.0067 331.76 44.9635 332.138 45.0689 333.036C45.4615 335.06 46.0371 337.702 46.9617 339.541C46.4326 339.735 45.9386 339.894 45.4599 340.198L44.7389 337.905C44.6579 336.7 43.7879 335.012 43.2325 333.956Z"/>
	<path fill="#612934" d="M64.5477 328.128L64.829 326.569C65.2164 327.471 65.0765 330.497 66.0534 330.248L67.0284 330.619C66.0182 332.161 65.0606 333.911 65.2741 335.83L64.6866 337.95C64.3858 337.123 64.1871 337.258 63.5254 337.767C63.2624 337.099 62.8328 336.638 62.387 336.083C64.5309 334.014 64.2025 330.877 64.5477 328.128Z"/>
	<path fill="#D6969C" d="M52.4603 283.344C53.8674 283.26 54.9434 283.152 56.1395 282.341L57.5211 281.447C57.8179 282.06 57.9861 282.458 58.045 283.151C59.1022 285.513 56.5622 287.199 54.5828 287.761L52.7755 286.714L51.767 284.371L52.7871 284.561L52.4603 283.344Z"/>
	<path fill="#9F696E" d="M52.4603 283.344C53.8674 283.26 54.9434 283.152 56.1395 282.341L57.5211 281.447C57.8179 282.06 57.9861 282.458 58.045 283.151C56.1405 284.259 54.9387 284.47 52.7871 284.561L52.4603 283.344Z"/>
	<path fill="#482D36" d="M66.2455 339.245L66.5862 338.959C67.2852 338.33 70.209 331.651 70.3601 330.375L70.4057 330.805C70.9433 335.324 70.3781 333.038 69.4546 337.204C68.5239 341.401 69.1192 341.262 66.4115 344.624C65.5862 344.078 64.3208 344.268 63.3602 344.278L64.4782 340.75C64.9888 339.673 65.1664 339.625 66.2455 339.245Z"/>
	<path fill="#DBA8A8" d="M49.7919 274.783C51.4898 274.661 52.004 275.179 53.5304 275.714C54.8153 276.417 59.6814 279.856 57.5199 281.345L57.5211 281.447L56.1395 282.341C54.9434 283.152 53.8674 283.26 52.4603 283.344L52.7871 284.561L51.767 284.371C50.9935 283.921 50.7607 283.624 49.855 283.746L49.7248 282.739C49.4097 279.99 49.3507 277.527 49.7919 274.783Z"/>
	<path fill="#DB4353" d="M54.9727 280.177C54.4857 282.141 52.4278 281.003 52.4603 283.344L52.7871 284.561L51.767 284.371C50.9935 283.921 50.7607 283.624 49.855 283.746L49.7248 282.739L50.2678 282.302C51.7109 281.155 53.2586 280.766 54.9727 280.177Z"/>
	<path fill="#D6969C" d="M54.9727 280.177C56.2739 279.675 56.5594 280.723 57.5199 281.345L57.5211 281.447L56.1395 282.341C54.9434 283.152 53.8674 283.26 52.4603 283.344C52.4278 281.003 54.4857 282.141 54.9727 280.177Z"/>
	<path fill="#6E3339" d="M44.0915 326.258C42.7099 321.936 42.3061 323 44.8768 318.134C47.84 312.526 58.147 313.462 52.7255 322.902C51.1382 325.666 51.046 325.255 52.8791 328.019L53.4626 327.718L53.6332 328.445L53.0236 329.362L52.2633 329.787C51.9397 330.66 51.6679 331.609 51.1227 332.371L50.7802 332.519L50.5179 332.426C50.0522 332.675 49.7816 332.802 49.4341 333.211L49.3204 333.209C49.2466 333.65 49.196 334.072 49.0512 334.495L46.9617 339.541C46.0371 337.702 45.4615 335.06 45.0689 333.036C44.9635 332.138 45.0067 331.76 44.4462 331.03L44.414 330.984C44.5944 329.423 44.2848 327.809 44.0915 326.258Z"/>
	<path fill="#BC3F43" d="M50.3371 316.125L51.0033 315.96C51.7544 316.208 52.1543 316.595 52.7106 317.125L52.5675 317.875C50.922 318.522 50.5235 317.64 50.3371 316.125Z"/>
	<path fill="#953942" d="M49.2398 330.508C49.8233 329.755 50.667 329.031 51.6225 328.875L52.2633 329.787C51.9397 330.66 51.6679 331.609 51.1227 332.371L50.7802 332.519L50.5179 332.426C49.863 331.904 49.5965 331.242 49.2398 330.508Z"/>
	<path fill="#612934" d="M48.8332 326.173L49.2443 327.871L49.2398 330.508C49.5965 331.242 49.863 331.904 50.5179 332.426C50.0522 332.675 49.7816 332.802 49.4341 333.211L49.3204 333.209C48.8478 331.531 48.1447 330.087 47.4655 328.49C47.5032 327.48 47.7664 327.174 48.2742 326.321L48.8332 326.173Z"/>
	<path fill="#612934" d="M44.0915 326.258L44.8316 323.25L45.5 323.377C46.106 324.029 46.5706 324.613 47.004 325.392L48.2742 326.321C47.7664 327.174 47.5032 327.48 47.4655 328.49L46.75 327.895L45.9678 328.719L45.0689 333.036C44.9635 332.138 45.0067 331.76 44.4462 331.03L44.414 330.984C44.5944 329.423 44.2848 327.809 44.0915 326.258Z"/>
	<path fill="#953942" d="M45.9678 328.719L45.8523 328.335C45.203 326.702 44.9745 326.016 45.095 324.25L45.375 324.057C45.8745 324.57 46.4286 324.971 47.004 325.392L48.2742 326.321C47.7664 327.174 47.5032 327.48 47.4655 328.49L46.75 327.895L45.9678 328.719Z"/>
	<path fill="#DB4353" d="M48.8332 326.173C47.0849 323.495 46.0138 319.267 49.25 317.215L49.875 317.208C50.2868 318.574 49.5591 326.658 49.2443 327.871L48.8332 326.173Z"/>
	<path fill="#BC3F43" d="M45.9678 328.719L46.75 327.895L47.4655 328.49C48.1447 330.087 48.8478 331.531 49.3204 333.209C49.2466 333.65 49.196 334.072 49.0512 334.495L46.9617 339.541C46.0371 337.702 45.4615 335.06 45.0689 333.036L45.9678 328.719Z"/>
	<path fill="#DB4353" d="M314.34 450.764C322.202 435.258 322.362 429.373 339.881 420.526C341.616 419.651 343.24 418.085 344.919 417.371L345.25 417.238C345.572 415.111 346.172 412.996 346.365 410.863C347.738 395.695 343.243 355.561 328.265 351.203C323.263 349.747 318.186 354.261 314.391 356.939C280.474 380.879 226.334 383.363 189.657 363.803C186.001 361.853 182.979 359.252 178.904 358.171C172.458 362.157 171.63 376.903 171.684 383.539C171.747 391.351 172.659 399.413 177.752 405.734L176.506 405.417C170.828 403.91 159.861 403.918 154.393 405.65C143.98 408.949 146.6 413.031 142.668 400.523L137.384 382.125L121.95 313.762C119.453 299.459 117.848 285.003 117.31 270.492L117.756 221.495C118.349 208.974 118.642 195.971 121.589 183.734C131.611 142.128 171.592 111.498 211.639 101.738C233.592 96.3879 264.142 95.2276 285.3 101.581C299.694 105.903 333.666 122.182 344.875 131.356C367.784 150.106 379.422 175.744 386.824 203.774L390.375 217.539C392.36 226.851 393.638 236.282 394.595 245.75L395.79 257.533L395.784 287.272L394.969 296.051C393.214 316.249 389.622 335.938 385.284 355.722L375.41 394.967C373.697 402.339 368.496 418.252 375.579 423.875L376.83 424.946C377.188 425.285 378.86 427.457 377.5 427.489C376.603 427.511 374.553 426.537 373.596 426.254L367.939 424.854L367.466 425.375C367.636 425.834 367.821 426.211 368.083 426.625L368.101 428.037C369.815 429.26 369.809 426.373 370.375 428.47C371.425 429.244 372.559 430.165 373.89 430.299C380.32 430.95 391.007 443.644 394.019 450.161C388.769 450.832 383.56 450.731 378.28 450.74L358.915 450.763L355.438 451.555C351.625 452.173 347.576 452.005 343.735 452.022L313.471 452.022C313.744 451.581 314.01 451.165 314.34 450.764ZM188.985 228.162C186.769 228.188 184.281 228.026 182.109 228.457C169.057 231.045 165.376 251.604 163.425 262.92L162.05 272.258C160.382 281.8 161.944 295.668 167.554 303.503C183.008 325.085 211.87 334.502 237.25 338.495C246.063 339.881 255.193 338.549 263.899 337.068L286.75 332.244C296.493 329.73 307.684 326.606 315.804 320.593L318.363 318.455C321.116 315.265 325.206 314.07 328.759 312.206C330.76 311.157 337.889 305.752 339.168 303.625L339.769 301.933C341.832 301.426 345.692 293.803 345.262 292.004C345.02 290.993 344.004 290.055 343.299 289.349C346.615 285.969 350.558 283.092 350.672 277.75L350.643 277.36C350.574 275.379 352.637 272.304 353.288 270.322C358.152 255.514 350.899 235.442 333.852 233.35C330.071 232.887 326.034 232.735 322.25 233.215L321.8 233.266C318.525 233.672 315.195 235.214 312.047 236.201L296.312 240.339C276.113 244.735 258.213 240.772 238.736 236.082L212.686 230.591C204.624 229.123 197.16 228.178 188.985 228.162Z"/>
	<path fill="#512C3D" d="M190.701 125.125L191.942 125.625C190.813 126.305 189.415 126.6 188.204 127.148L181.455 130.375C180.969 130.618 180.923 130.775 180.378 130.625C182.903 128.233 187.262 125.721 190.701 125.125Z"/>
	<path fill="#512C3D" d="M191.703 131.356C193.066 131.191 194.976 131.234 196.213 131.831L181.438 132.759C180.198 132.81 178.817 133.317 177.625 133.188C179.022 131.643 181.417 132.337 183.25 132.218L191.703 131.356Z"/>
	<path fill="#43454D" d="M314.34 450.764L358.915 450.765L355.438 451.555C351.625 452.173 347.576 452.005 343.735 452.022L313.471 452.022C313.744 451.581 314.01 451.165 314.34 450.764Z"/>
	<path fill="#612934" d="M368.101 428.037C367.575 427.84 367.824 427.876 367.365 427.875L366.537 428.484C365.316 428.562 363.389 427.316 362.505 426.564L362.25 426.335C357.067 429.148 358.889 423.27 352.564 425.777L352.246 425.906C348.259 421.918 348.908 425.747 346.322 424.215C345.809 417.901 352.076 421.918 354.412 421.761C356.761 421.602 364.974 424.344 367.939 424.854L367.466 425.375C367.636 425.834 367.821 426.211 368.083 426.625L368.101 428.037Z"/>
	<path fill="#612934" d="M262.422 185.375C262.504 185.371 275.538 193.996 278.485 195.318C283.551 197.591 298.945 198.523 300.125 199.21L299.452 199.418C295.379 200.255 290.568 201.183 286.461 200.465C278.007 198.985 267.541 192.562 262.422 185.375Z"/>
	<path fill="#272627" d="M300.824 143.846C315.31 142.892 329.805 155.851 327.093 170.928C324.524 185.215 314.076 197.247 299.061 197.665L295 197.308C289.476 196.414 284.541 194.238 280.266 190.607C278.862 189.414 271.559 184.05 277.493 185.132L277.713 185.177C278.199 182.692 275.986 177.409 275.643 174.642C273.751 159.421 285.834 145.539 300.824 143.846Z"/>
	<path fill="white" d="M299.129 151.044C326.382 148.785 324.075 186.748 301.99 192.203C285.198 195.893 275.898 174.381 285.005 159.75L285.239 159.37C287.944 155.1 294.317 152.065 299.129 151.044Z"/>
	<path fill="#848B8D" d="M307.192 163.781C307.174 162.944 307.255 162.949 306.662 162.375C308.505 161.188 310.19 163.208 310.47 164.875C309.814 165.218 308.388 164.719 307.55 164.689L307.192 163.781Z"/>
	<path fill="#7B8E85" d="M307.55 164.689C301.453 163.421 299.04 163.454 292.729 164.115C289.863 164.416 285.465 166.327 286.471 161.492C286.611 161.905 286.608 162.221 286.976 162.474C288.159 164.001 291.746 162.965 293.375 162.798L302.052 162.255C304.506 162.209 305.349 162.098 307.192 163.781L307.55 164.689Z"/>
	<defs>
		<linearGradient id="gradient_4" gradientUnits="userSpaceOnUse" x1="296.2449" y1="155.57736" x2="296.88766" y2="159.77377">
			<stop offset="0" stop-color="#3D443F"/>
			<stop offset="1" stop-color="#666E6C"/>
		</linearGradient>
	</defs>
	<path fill="url(#gradient_4)" d="M286.471 161.492C286.906 159.13 291.04 157.06 293.05 156.152C297.571 154.11 302.494 155.333 307.125 156.037L307.375 157.183C303.9 158.51 297.164 153.503 286.976 162.474C286.608 162.221 286.611 161.905 286.471 161.492Z"/>
	<path fill="#2E3031" d="M302.72 169.856L304.875 169.858C315.25 170.954 311.254 192.237 297.41 190.488C286.185 187.784 284.234 171.357 302.72 169.856Z"/>
	<path fill="#272627" d="M300.457 175.323C306.648 175.437 302.836 183.533 298.625 183.153L296.375 182.096C292.342 179.379 297.182 175.948 300.457 175.323Z"/>
	<path fill="#272627" d="M201.322 140.871C206.499 141.051 211.773 142.007 216.185 144.886C228.057 152.632 229.715 170.982 222.131 182.248C216.882 190.044 206.368 194.354 197.135 194.544C174.778 193.945 163.289 164.944 178.257 148.602C184.06 142.267 193.206 141.201 201.322 140.871Z"/>
	<path fill="white" d="M197.912 147.345C224.317 144.309 230.655 184.339 200.583 188.666C198.616 188.847 196.329 188.907 194.414 188.404L194 188.288C172.631 182.553 171.688 150.561 197.912 147.345Z"/>
	<path fill="#272627" d="M197.276 155.097C213.522 154.599 216.85 178.383 201.532 182.246L200.364 182.372C185.027 183.517 180.862 156.397 197.276 155.097Z"/>
	<path fill="#EFEBED" d="M194.886 160.718L196.217 160.719C201.157 161.041 200.406 168.464 196.125 171.45L195.886 171.479C190.599 171.547 189.131 163.933 194.886 160.718Z"/>
	<path fill="#272627" d="M188.985 228.162C197.16 228.178 204.624 229.123 212.686 230.591L238.736 236.082C258.213 240.772 276.113 244.735 296.312 240.339L312.047 236.201C315.195 235.214 318.525 233.672 321.8 233.266L322.25 233.215C326.034 232.735 330.071 232.887 333.852 233.35C350.899 235.442 358.152 255.514 353.288 270.322C352.637 272.304 350.574 275.379 350.643 277.36L350.672 277.75C350.558 283.092 346.615 285.969 343.299 289.349C344.004 290.055 345.02 290.993 345.262 292.004C345.692 293.803 341.832 301.426 339.769 301.933L339.168 303.625C337.889 305.752 330.76 311.157 328.759 312.206C325.206 314.07 321.116 315.265 318.363 318.455L315.804 320.593C307.684 326.606 296.493 329.73 286.75 332.244L263.899 337.068C255.193 338.549 246.063 339.881 237.25 338.495C211.87 334.502 183.008 325.085 167.554 303.503C161.944 295.668 160.382 281.8 162.05 272.258L163.425 262.92C165.376 251.604 169.057 231.045 182.109 228.457C184.281 228.026 186.769 228.188 188.985 228.162ZM251.942 270.461L251.625 273.127L250.582 273.167C245.533 274.843 240.679 268.738 237.584 265.556L229.655 257.05C227.955 255.209 226.153 253.414 224.609 251.438L224.426 251.199C221.91 254.523 220.062 258.168 216.05 260.042C204.75 265.318 194.456 254.899 189.625 245.592C187.281 241.077 185.592 234.486 181.264 231.542C181.89 234.339 183.319 236.804 183.419 239.75C183.782 250.44 174.323 275.371 171.797 287.695C171.345 289.896 170.329 293.004 170.429 295.223C179.948 295.033 189.793 294.691 199.278 295.443L271.125 302.517C274.887 302.792 278.714 302.706 282.488 302.709C304.742 302.725 340.896 298.086 349.067 273.004C349.401 271.979 348.887 270.421 348.697 269.334C346.653 257.626 343.533 243.997 331.109 239.926C335.19 249.246 341.653 269.735 329.522 275.852L329.064 276.073C327.067 277.049 324.707 277.65 322.508 277.08L322.25 277.009C316.526 275.719 313.258 269.833 311.106 264.881C310.47 271.204 306.466 277.804 300.398 280.307C287.667 285.557 289.017 273.609 285.561 265.467L283.075 275.052C280.357 283.605 272.268 286.748 263.852 283.896L263.5 283.774C259.812 282.511 257.14 280.01 254.919 276.865C253.11 274.304 254.642 273.491 255.534 270.948C257.006 266.748 256.619 262.418 257.655 258.212L254.493 253.25C253.879 252.305 253.049 251.787 252.231 251.045L248.632 247.557L247.571 249.826L248.667 258.547C249.308 263.17 250.263 266.076 251.942 270.461ZM233.007 307.179C229.398 315.579 228.177 320.838 229.973 330.068C233.304 331.049 237.419 333.95 238.207 330.069L238.233 329.817C239.116 321.914 242.581 316.31 243.535 310.227L243.283 310.14C237.901 308.183 239.435 307.216 233.007 307.179ZM202.348 304.078L199.764 304.514C196.527 314.218 198.377 321.29 208.342 324.875L208.914 324.673C209.418 322.454 209.621 319.922 209.792 317.641C209.961 315.379 211.196 311.552 211.552 308.452C212.092 303.748 205.358 303.234 202.348 304.078ZM263.621 309.375L262.58 309.625C261.415 314.894 262.063 320.522 263.356 325.701C265.416 333.951 266.432 329.233 269.646 329.687L269.742 328.875L272.866 309.635C271.584 308.836 265.101 309.216 263.621 309.375ZM319.824 239.287L315.01 240.873C317.212 246.023 319.065 251.623 320.436 257.054C321.187 260.03 321.062 264.391 323.375 266.604L324.047 267.258L324.75 267.681C325.874 266.982 326.646 266.005 327.231 264.826C327.289 257.667 325.484 250.431 323.418 243.609C322.63 241.008 322.965 239.118 319.824 239.287ZM304.627 243.625L295.059 246.467C296.146 250.029 296.451 253.765 296.872 257.456L298.411 268.82L298.875 270.727C301.725 268.634 303.828 253.854 304.484 250.031L305.642 243.75C305.133 243.471 305.164 243.548 304.627 243.625ZM271.862 247.875L271.35 248.625C271.673 250.069 272.084 251.438 271.625 252.888C272.458 253.615 272.312 254.675 272.382 255.754L272.978 271.013L274.61 267.939C276.487 262.18 278.822 254.318 278.1 248.235C276.196 248.069 273.725 247.52 271.862 247.875ZM304.114 307.837C302.587 308.095 299.919 308.249 298.835 309.375C298.548 311.861 298.876 319.721 302.125 320.318C303.24 319.891 304.121 319.282 305.096 318.611C306.304 314.722 307.358 312.11 306.974 307.895L304.114 307.837ZM292.33 317.559C291.453 319.643 287.572 327.456 288.084 329.162L289.561 329.275C291.125 328.544 292.553 327.839 293.932 326.791L292.33 317.559ZM248.731 331.517C248.814 328.858 249.605 326.253 248.353 323.736L248.172 323.313C247.337 321.247 249.185 319.105 250.375 317.567C247.789 317.734 248.147 319.528 247.601 321.537C246.554 325.386 245.346 328.717 245.164 332.844L248.703 332.375C248.859 331.778 248.862 332.064 248.731 331.517ZM235.115 250.399C235.927 249.858 236.748 249.429 237.624 249.002C237.751 246.041 238.016 241.309 232.867 242.125C232.248 243.006 232.811 246.43 232.838 247.668L235.115 250.399ZM277.448 320.731C276.4 323.424 273.388 330.813 278.875 328.541C280.082 327.744 280.543 324.4 280.92 322.912C279.796 322.072 278.692 321.379 277.448 320.731ZM205.264 250.246L205.467 249.285C205.348 248.235 205.206 247.615 206.113 246.875L205.874 246.672C203.538 244.645 203.102 239.306 201.966 236.394L201.557 240.375C201.183 243.8 201.477 245.411 203.668 248.328L205.264 250.246ZM209.699 246.542L210.972 246.222C211.507 245.995 211.818 245.926 212.206 245.478L212.5 245.127C212.755 245.374 212.869 245.753 213.017 246.073C213.14 244.552 212.902 239.423 212.922 239.315L212.579 239.144C211.631 238.662 211.135 237.981 210 238.026L209.637 238.476C210.085 242.444 209.755 242.763 209.699 246.542ZM330.011 300.625C329.303 300.933 328.832 301.024 328.375 301.658C328.924 302.813 330.766 308.244 332.465 306.875L334.481 305.044C333.535 303.952 331.464 300.22 330.011 300.625ZM315.48 317.775L315.929 317.125C316.869 315.567 318.032 315.407 319.212 314.198C318.052 313.416 317.011 312.67 316.009 311.683L314.142 309.877L314.082 314.229C314.052 315.725 313.726 317.17 315.48 317.775ZM214.488 322.605C214.741 323.578 214.914 325.024 215.688 325.683C216.91 324.514 216.87 323.362 216.958 321.75L216.796 321.527C216.158 320.334 216.772 316.844 217.679 315.93L217.677 315.485C216.163 316.432 215.629 316.723 215.24 318.5L214.488 322.605ZM215.688 325.683C215.742 326.184 215.439 326.63 215.401 327.197L215.362 327.309C216.11 327.421 217.457 327.751 218.12 327.375L218.32 324.683L218.296 324.633C218.291 324.135 218.343 323.717 218.272 323.218L217.807 319.582L217.697 319.477C217.034 318.174 217.161 317.213 217.679 315.93C216.772 316.844 216.158 320.334 216.796 321.527L216.958 321.75C216.87 323.362 216.91 324.514 215.688 325.683ZM339.388 293.625C334.588 296.585 336.343 295.791 338.577 298.256L339.125 298.961L339.394 298.389C339.405 297.329 339.326 296.544 340.133 295.758L340.14 293.859C339.604 293.596 339.861 293.65 339.388 293.625ZM319.212 314.198C318.032 315.407 316.869 315.567 315.929 317.125L315.48 317.775L315.906 317.928C317.781 317.671 319.643 316.259 321.232 315.299L319.212 314.198ZM189.836 302.125C189.811 302.397 188.363 311.328 190.125 308.09C190.962 306.336 191.172 304.3 191.237 302.375L190.75 301.94C190.418 301.977 190.159 301.994 189.836 302.125ZM221.797 239.375C221.085 240.591 221.696 242.552 222.001 243.875L223.204 243.625C224.423 241.912 223.861 240.886 222.375 239.547L221.797 239.375ZM318.742 305.125L317.796 306.045C319.181 306.642 320.333 307.362 321.375 308.458L321.962 308.9C322.474 307.257 320.525 304.81 318.742 305.125ZM236.065 253.125L239.784 258.217C239.598 255.606 240.055 254.267 237.074 254.125L236.065 253.125ZM182.76 301.625C182.323 302.688 181.256 305.7 181.625 306.711L182.14 306.875C182.584 306.079 184.424 301.714 182.76 301.625ZM192.379 234.019C193.144 235.607 193.74 237.411 194.62 238.915L194.656 238.375L194.604 238.154C194.397 237.124 194.667 236.555 195.078 235.625L195.459 234.771L192.379 234.019Z"/>
	<path fill="#6C7384" d="M217.807 319.582L219.38 318.962L218.32 324.683L218.296 324.633C218.291 324.135 218.343 323.717 218.272 323.218L217.807 319.582Z"/>
	<path fill="#848B8D" d="M237.624 249.002C237.767 250.176 237.823 250.902 237.207 251.97L235.115 250.399C235.927 249.858 236.748 249.429 237.624 249.002Z"/>
	<path fill="#848B8D" d="M217.677 315.485L218.097 316.563C218.702 317.177 219.116 317.74 219.516 318.5L219.38 318.962L217.807 319.582L217.697 319.477C217.034 318.174 217.161 317.213 217.679 315.93L217.677 315.485Z"/>
	<path fill="#848B8D" d="M215.362 327.309C212.284 327.203 213.751 324.744 214.488 322.605C214.741 323.578 214.914 325.024 215.688 325.683C215.742 326.184 215.439 326.63 215.401 327.197L215.362 327.309Z"/>
	<path fill="#BFC0C6" d="M263.545 248.375C265.896 247.606 265.309 251.019 264.997 252.375L264.498 252.625C263.53 251.765 263.602 250.428 262.625 249.782L263.545 248.375Z"/>
	<path fill="#BFC0C6" d="M254.203 325.375C255.166 325.833 254.581 327.503 254.889 328.518C255.209 329.571 255.935 330.66 256.47 331.625L255.875 332.018C254.944 331.99 254.222 332.144 253.549 331.625C253.528 329.544 253.32 327.311 254.203 325.375Z"/>
	<path fill="#43454D" d="M248.353 323.736C249.605 326.253 248.814 328.858 248.731 331.517L247.875 330.929C247.501 328.432 247.843 326.188 248.353 323.736Z"/>
	<path fill="#EFEBED" d="M209.699 246.542L210.972 246.222C211.507 245.995 211.818 245.926 212.206 245.478L212.5 245.127C212.755 245.374 212.869 245.753 213.017 246.073C212.71 249.341 212.25 251.084 209.747 253.37L206.279 251.75C205.997 251.206 205.634 250.732 205.264 250.246L205.467 249.285C205.808 248.992 205.716 249.127 205.915 248.754L206.443 247.75C207.098 246.763 208.257 246.926 209.337 246.64L209.699 246.542Z"/>
	<path fill="#2E3031" d="M251.942 270.461C252.574 271.629 253.632 273.072 253.409 274.41L252.823 274.642C252.021 274.225 251.313 273.695 250.582 273.167L251.625 273.127L251.942 270.461Z"/>
</svg>
